<?xml version="1.0" encoding="UTF-8"?>
<svg version="1.1" xmlns="http://www.w3.org/2000/svg" width="160" height="160">
<path d="M0 0 C3.3 0 6.6 0 10 0 C10 1.65 10 3.3 10 5 C13.3 5 16.6 5 20 5 C20 3.35 20 1.7 20 0 C26.6 0 33.2 0 40 0 C40 1.65 40 3.3 40 5 C41.65 5 43.3 5 45 5 C45 6.65 45 8.3 45 10 C48.3 10 51.6 10 55 10 C55 11.65 55 13.3 55 15 C56.65 15 58.3 15 60 15 C60 16.65 60 18.3 60 20 C61.65 20 63.3 20 65 20 C65 23.3 65 26.6 65 30 C63.35 30 61.7 30 60 30 C60 31.65 60 33.3 60 35 C61.65 35 63.3 35 65 35 C65 38.3 65 41.6 65 45 C63.35 45 61.7 45 60 45 C60 46.65 60 48.3 60 50 C58.35 50 56.7 50 55 50 C55 51.65 55 53.3 55 55 C53.35 55 51.7 55 50 55 C50 59.95 50 64.9 50 70 C48.35 70 46.7 70 45 70 C45 71.65 45 73.3 45 75 C43.35 75 41.7 75 40 75 C40 76.65 40 78.3 40 80 C36.7 80 33.4 80 30 80 C30 81.65 30 83.3 30 85 C23.4 85 16.8 85 10 85 C10 83.35 10 81.7 10 80 C6.7 80 3.4 80 0 80 C0 78.35 0 76.7 0 75 C-3.3 75 -6.6 75 -10 75 C-10 73.35 -10 71.7 -10 70 C-11.65 70 -13.3 70 -15 70 C-15 68.35 -15 66.7 -15 65 C-16.65 65 -18.3 65 -20 65 C-20 60.05 -20 55.1 -20 50 C-21.65 50 -23.3 50 -25 50 C-25 46.7 -25 43.4 -25 40 C-26.65 40 -28.3 40 -30 40 C-30 36.7 -30 33.4 -30 30 C-28.35 30 -26.7 30 -25 30 C-25 28.35 -25 26.7 -25 25 C-23.35 25 -21.7 25 -20 25 C-20 21.7 -20 18.4 -20 15 C-18.35 15 -16.7 15 -15 15 C-15 13.35 -15 11.7 -15 10 C-11.7 10 -8.4 10 -5 10 C-5 8.35 -5 6.7 -5 5 C-3.35 5 -1.7 5 0 5 C0 3.35 0 1.7 0 0 Z " fill="#3B1F1F" transform="translate(65,35)"/>
<path d="M0 0 C4.95 0 9.9 0 15 0 C15 1.65 15 3.3 15 5 C11.7 5 8.4 5 5 5 C5 6.65 5 8.3 5 10 C6.65 10 8.3 10 10 10 C10 11.65 10 13.3 10 15 C11.65 15 13.3 15 15 15 C15 13.35 15 11.7 15 10 C16.65 10 18.3 10 20 10 C20 16.6 20 23.2 20 30 C18.35 30 16.7 30 15 30 C15 31.65 15 33.3 15 35 C11.7 35 8.4 35 5 35 C5 36.65 5 38.3 5 40 C-1.6 40 -8.2 40 -15 40 C-15 38.35 -15 36.7 -15 35 C-18.3 35 -21.6 35 -25 35 C-25 33.35 -25 31.7 -25 30 C-28.3 30 -31.6 30 -35 30 C-35 28.35 -35 26.7 -35 25 C-36.65 25 -38.3 25 -40 25 C-40 20.05 -40 15.1 -40 10 C-36.7 10 -33.4 10 -30 10 C-30 13.3 -30 16.6 -30 20 C-28.35 20 -26.7 20 -25 20 C-25 15.05 -25 10.1 -25 5 C-23.35 5 -21.7 5 -20 5 C-20 6.65 -20 8.3 -20 10 C-18.35 10 -16.7 10 -15 10 C-15 11.65 -15 13.3 -15 15 C-13.35 15 -11.7 15 -10 15 C-10 13.35 -10 11.7 -10 10 C-8.35 10 -6.7 10 -5 10 C-5 8.35 -5 6.7 -5 5 C-3.35 5 -1.7 5 0 5 C0 3.35 0 1.7 0 0 Z " fill="#F8CA9D" transform="translate(90,80)"/>
<path d="M0 0 C6.6 0 13.2 0 20 0 C20 1.65 20 3.3 20 5 C21.65 5 23.3 5 25 5 C25 6.65 25 8.3 25 10 C28.3 10 31.6 10 35 10 C35 8.35 35 6.7 35 5 C39.95 5 44.9 5 50 5 C50 6.65 50 8.3 50 10 C46.7 10 43.4 10 40 10 C40 11.65 40 13.3 40 15 C33.4 15 26.8 15 20 15 C20 13.35 20 11.7 20 10 C16.7 10 13.4 10 10 10 C10 8.35 10 6.7 10 5 C6.7 5 3.4 5 0 5 C0 3.35 0 1.7 0 0 Z " fill="#000000" transform="translate(55,105)"/>
<path d="M0 0 C1.65 0 3.3 0 5 0 C5 3.3 5 6.6 5 10 C3.35 10 1.7 10 0 10 C0 11.65 0 13.3 0 15 C-1.65 15 -3.3 15 -5 15 C-5 19.95 -5 24.9 -5 30 C-6.65 30 -8.3 30 -10 30 C-10 26.7 -10 23.4 -10 20 C-13.3 20 -16.6 20 -20 20 C-20 23.3 -20 26.6 -20 30 C-21.65 30 -23.3 30 -25 30 C-25 25.05 -25 20.1 -25 15 C-20.05 15 -15.1 15 -10 15 C-10 13.35 -10 11.7 -10 10 C-8.35 10 -6.7 10 -5 10 C-5 8.35 -5 6.7 -5 5 C-3.35 5 -1.7 5 0 5 C0 3.35 0 1.7 0 0 Z " fill="#000000" transform="translate(70,70)"/>
<path d="M0 0 C6.6 0 13.2 0 20 0 C20 1.65 20 3.3 20 5 C21.65 5 23.3 5 25 5 C25 6.65 25 8.3 25 10 C28.3 10 31.6 10 35 10 C35 11.65 35 13.3 35 15 C28.4 15 21.8 15 15 15 C15 11.7 15 8.4 15 5 C11.7 5 8.4 5 5 5 C5 6.65 5 8.3 5 10 C0.05 10 -4.9 10 -10 10 C-10 8.35 -10 6.7 -10 5 C-6.7 5 -3.4 5 0 5 C0 3.35 0 1.7 0 0 Z " fill="#000000" transform="translate(85,35)"/>
<path d="M0 0 C1.65 0 3.3 0 5 0 C5 1.65 5 3.3 5 5 C6.65 5 8.3 5 10 5 C10 6.65 10 8.3 10 10 C11.65 10 13.3 10 15 10 C15 11.65 15 13.3 15 15 C13.35 15 11.7 15 10 15 C10 16.65 10 18.3 10 20 C6.7 20 3.4 20 0 20 C0 18.35 0 16.7 0 15 C-3.3 15 -6.6 15 -10 15 C-10 11.7 -10 8.4 -10 5 C-6.7 5 -3.4 5 0 5 C0 3.35 0 1.7 0 0 Z " fill="#80483E" transform="translate(65,45)"/>
<path d="M0 0 C3.3 0 6.6 0 10 0 C10 1.65 10 3.3 10 5 C8.35 5 6.7 5 5 5 C5 6.65 5 8.3 5 10 C3.35 10 1.7 10 0 10 C0 14.95 0 19.9 0 25 C-1.65 25 -3.3 25 -5 25 C-5 18.4 -5 11.8 -5 5 C-3.35 5 -1.7 5 0 5 C0 3.35 0 1.7 0 0 Z " fill="#000000" transform="translate(115,80)"/>
<path d="M0 0 C3.3 0 6.6 0 10 0 C10 3.3 10 6.6 10 10 C8.35 10 6.7 10 5 10 C5 11.65 5 13.3 5 15 C3.35 15 1.7 15 0 15 C0 10.05 0 5.1 0 0 Z " fill="#F8CA9D" transform="translate(50,90)"/>
<path d="M0 0 C1.65 0 3.3 0 5 0 C5 1.65 5 3.3 5 5 C8.3 5 11.6 5 15 5 C15 6.65 15 8.3 15 10 C13.35 10 11.7 10 10 10 C10 11.65 10 13.3 10 15 C8.35 15 6.7 15 5 15 C5 13.35 5 11.7 5 10 C3.35 10 1.7 10 0 10 C0 6.7 0 3.4 0 0 Z " fill="#3C1F20" transform="translate(70,80)"/>
<path d="M0 0 C4.95 0 9.9 0 15 0 C15 1.65 15 3.3 15 5 C11.7 5 8.4 5 5 5 C5 6.65 5 8.3 5 10 C1.7 10 -1.6 10 -5 10 C-5 8.35 -5 6.7 -5 5 C-3.35 5 -1.7 5 0 5 C0 3.35 0 1.7 0 0 Z " fill="#E07D6E" transform="translate(90,80)"/>
<path d="M0 0 C1.65 0 3.3 0 5 0 C5 1.65 5 3.3 5 5 C8.3 5 11.6 5 15 5 C15 6.65 15 8.3 15 10 C8.4 10 1.8 10 -5 10 C-5 8.35 -5 6.7 -5 5 C-3.35 5 -1.7 5 0 5 C0 3.35 0 1.7 0 0 Z " fill="#000000" transform="translate(105,40)"/>
<path d="M0 0 C6.6 0 13.2 0 20 0 C20 1.65 20 3.3 20 5 C13.4 5 6.8 5 0 5 C0 3.35 0 1.7 0 0 Z " fill="#DE7E6E" transform="translate(55,105)"/>
<path d="M0 0 C4.95 0 9.9 0 15 0 C15 1.65 15 3.3 15 5 C13.35 5 11.7 5 10 5 C10 6.65 10 8.3 10 10 C8.35 10 6.7 10 5 10 C5 8.35 5 6.7 5 5 C3.35 5 1.7 5 0 5 C0 3.35 0 1.7 0 0 Z " fill="#3C1F20" transform="translate(95,85)"/>
<path d="M0 0 C3.3 0 6.6 0 10 0 C10 1.65 10 3.3 10 5 C8.35 5 6.7 5 5 5 C5 6.65 5 8.3 5 10 C1.7 10 -1.6 10 -5 10 C-5 8.35 -5 6.7 -5 5 C-3.35 5 -1.7 5 0 5 C0 3.35 0 1.7 0 0 Z " fill="#80483E" transform="translate(90,40)"/>
<path d="M0 0 C1.65 0 3.3 0 5 0 C5 3.3 5 6.6 5 10 C0.05 10 -4.9 10 -10 10 C-10 8.35 -10 6.7 -10 5 C-6.7 5 -3.4 5 0 5 C0 3.35 0 1.7 0 0 Z " fill="#000000" transform="translate(60,40)"/>
<path d="M0 0 C4.95 0 9.9 0 15 0 C15 1.65 15 3.3 15 5 C10.05 5 5.1 5 0 5 C0 3.35 0 1.7 0 0 Z " fill="#000000" transform="translate(75,80)"/>
<path d="M0 0 C3.3 0 6.6 0 10 0 C10 1.65 10 3.3 10 5 C8.35 5 6.7 5 5 5 C5 6.65 5 8.3 5 10 C3.35 10 1.7 10 0 10 C0 6.7 0 3.4 0 0 Z " fill="#80483E" transform="translate(80,65)"/>
<path d="M0 0 C1.65 0 3.3 0 5 0 C5 3.3 5 6.6 5 10 C1.7 10 -1.6 10 -5 10 C-5 8.35 -5 6.7 -5 5 C-3.35 5 -1.7 5 0 5 C0 3.35 0 1.7 0 0 Z " fill="#80483E" transform="translate(55,65)"/>
<path d="M0 0 C1.65 0 3.3 0 5 0 C5 1.65 5 3.3 5 5 C6.65 5 8.3 5 10 5 C10 6.65 10 8.3 10 10 C6.7 10 3.4 10 0 10 C0 6.7 0 3.4 0 0 Z " fill="#000000" transform="translate(115,60)"/>
<path d="M0 0 C3.3 0 6.6 0 10 0 C10 1.65 10 3.3 10 5 C6.7 5 3.4 5 0 5 C0 3.35 0 1.7 0 0 Z " fill="#000000" transform="translate(55,105)"/>
<path d="M0 0 C3.3 0 6.6 0 10 0 C10 1.65 10 3.3 10 5 C6.7 5 3.4 5 0 5 C0 3.35 0 1.7 0 0 Z " fill="#000000" transform="translate(85,100)"/>
<path d="M0 0 C3.3 0 6.6 0 10 0 C10 1.65 10 3.3 10 5 C6.7 5 3.4 5 0 5 C0 3.35 0 1.7 0 0 Z " fill="#DE7E6E" transform="translate(55,100)"/>
<path d="M0 0 C3.3 0 6.6 0 10 0 C10 1.65 10 3.3 10 5 C6.7 5 3.4 5 0 5 C0 3.35 0 1.7 0 0 Z " fill="#000000" transform="translate(95,75)"/>
<path d="M0 0 C1.65 0 3.3 0 5 0 C5 3.3 5 6.6 5 10 C3.35 10 1.7 10 0 10 C0 6.7 0 3.4 0 0 Z " fill="#000000" transform="translate(40,75)"/>
<path d="M0 0 C1.65 0 3.3 0 5 0 C5 3.3 5 6.6 5 10 C3.35 10 1.7 10 0 10 C0 6.7 0 3.4 0 0 Z " fill="#000000" transform="translate(125,70)"/>
<path d="M0 0 C1.65 0 3.3 0 5 0 C5 3.3 5 6.6 5 10 C3.35 10 1.7 10 0 10 C0 6.7 0 3.4 0 0 Z " fill="#000000" transform="translate(35,65)"/>
<path d="M0 0 C1.65 0 3.3 0 5 0 C5 3.3 5 6.6 5 10 C3.35 10 1.7 10 0 10 C0 6.7 0 3.4 0 0 Z " fill="#000000" transform="translate(125,55)"/>
<path d="M0 0 C3.3 0 6.6 0 10 0 C10 1.65 10 3.3 10 5 C6.7 5 3.4 5 0 5 C0 3.35 0 1.7 0 0 Z " fill="#80483E" transform="translate(105,50)"/>
<path d="M0 0 C1.65 0 3.3 0 5 0 C5 3.3 5 6.6 5 10 C3.35 10 1.7 10 0 10 C0 6.7 0 3.4 0 0 Z " fill="#000000" transform="translate(45,50)"/>
<path d="M0 0 C3.3 0 6.6 0 10 0 C10 1.65 10 3.3 10 5 C6.7 5 3.4 5 0 5 C0 3.35 0 1.7 0 0 Z " fill="#000000" transform="translate(75,40)"/>
<path d="M0 0 C3.3 0 6.6 0 10 0 C10 1.65 10 3.3 10 5 C6.7 5 3.4 5 0 5 C0 3.35 0 1.7 0 0 Z " fill="#000000" transform="translate(65,35)"/>
<path d="M0 0 C1.65 0 3.3 0 5 0 C5 1.65 5 3.3 5 5 C3.35 5 1.7 5 0 5 C0 3.35 0 1.7 0 0 Z " fill="#DE7E6E" transform="translate(80,110)"/>
<path d="M0 0 C1.65 0 3.3 0 5 0 C5 1.65 5 3.3 5 5 C3.35 5 1.7 5 0 5 C0 3.35 0 1.7 0 0 Z " fill="#000000" transform="translate(105,105)"/>
<path d="M0 0 C1.65 0 3.3 0 5 0 C5 1.65 5 3.3 5 5 C3.35 5 1.7 5 0 5 C0 3.35 0 1.7 0 0 Z " fill="#F8CA9D" transform="translate(55,100)"/>
<path d="M0 0 C1.65 0 3.3 0 5 0 C5 1.65 5 3.3 5 5 C3.35 5 1.7 5 0 5 C0 3.35 0 1.7 0 0 Z " fill="#000000" transform="translate(50,100)"/>
<path d="M0 0 C1.65 0 3.3 0 5 0 C5 1.65 5 3.3 5 5 C3.35 5 1.7 5 0 5 C0 3.35 0 1.7 0 0 Z " fill="#DE7E6E" transform="translate(55,95)"/>
<path d="M0 0 C1.65 0 3.3 0 5 0 C5 1.65 5 3.3 5 5 C3.35 5 1.7 5 0 5 C0 3.35 0 1.7 0 0 Z " fill="#D3D7EE" transform="translate(105,90)"/>
<path d="M0 0 C1.65 0 3.3 0 5 0 C5 1.65 5 3.3 5 5 C3.35 5 1.7 5 0 5 C0 3.35 0 1.7 0 0 Z " fill="#3A395A" transform="translate(100,90)"/>
<path d="M0 0 C1.65 0 3.3 0 5 0 C5 1.65 5 3.3 5 5 C3.35 5 1.7 5 0 5 C0 3.35 0 1.7 0 0 Z " fill="#D3D7EE" transform="translate(95,90)"/>
<path d="M0 0 C1.65 0 3.3 0 5 0 C5 1.65 5 3.3 5 5 C3.35 5 1.7 5 0 5 C0 3.35 0 1.7 0 0 Z " fill="#D3D7EE" transform="translate(80,90)"/>
<path d="M0 0 C1.65 0 3.3 0 5 0 C5 1.65 5 3.3 5 5 C3.35 5 1.7 5 0 5 C0 3.35 0 1.7 0 0 Z " fill="#3A395A" transform="translate(75,90)"/>
<path d="M0 0 C1.65 0 3.3 0 5 0 C5 1.65 5 3.3 5 5 C3.35 5 1.7 5 0 5 C0 3.35 0 1.7 0 0 Z " fill="#D3D7EE" transform="translate(70,90)"/>
<path d="M0 0 C1.65 0 3.3 0 5 0 C5 1.65 5 3.3 5 5 C3.35 5 1.7 5 0 5 C0 3.35 0 1.7 0 0 Z " fill="#E07D6E" transform="translate(65,85)"/>
<path d="M0 0 C1.65 0 3.3 0 5 0 C5 1.65 5 3.3 5 5 C3.35 5 1.7 5 0 5 C0 3.35 0 1.7 0 0 Z " fill="#000000" transform="translate(105,80)"/>
<path d="M0 0 C1.65 0 3.3 0 5 0 C5 1.65 5 3.3 5 5 C3.35 5 1.7 5 0 5 C0 3.35 0 1.7 0 0 Z " fill="#E07D6E" transform="translate(70,80)"/>
<path d="M0 0 C1.65 0 3.3 0 5 0 C5 1.65 5 3.3 5 5 C3.35 5 1.7 5 0 5 C0 3.35 0 1.7 0 0 Z " fill="#000000" transform="translate(90,70)"/>
<path d="M0 0 C1.65 0 3.3 0 5 0 C5 1.65 5 3.3 5 5 C3.35 5 1.7 5 0 5 C0 3.35 0 1.7 0 0 Z " fill="#80483E" transform="translate(100,60)"/>
<path d="M0 0 C1.65 0 3.3 0 5 0 C5 1.65 5 3.3 5 5 C3.35 5 1.7 5 0 5 C0 3.35 0 1.7 0 0 Z " fill="#000000" transform="translate(40,60)"/>
<path d="M0 0 C1.65 0 3.3 0 5 0 C5 1.65 5 3.3 5 5 C3.35 5 1.7 5 0 5 C0 3.35 0 1.7 0 0 Z " fill="#000000" transform="translate(120,50)"/>
<path d="M0 0 C1.65 0 3.3 0 5 0 C5 1.65 5 3.3 5 5 C3.35 5 1.7 5 0 5 C0 3.35 0 1.7 0 0 Z " fill="#3C1F1F" transform="translate(100,40)"/>
<path d="M0 0 C1.65 0 3.3 0 5 0 C5 1.65 5 3.3 5 5 C3.35 5 1.7 5 0 5 C0 3.35 0 1.7 0 0 Z " fill="#3C1F1F" transform="translate(85,40)"/>
</svg>
