<?xml version="1.0" encoding="UTF-8"?>
<svg version="1.1" xmlns="http://www.w3.org/2000/svg" width="160" height="160">
<path d="M0 0 C3.3 0 6.6 0 10 0 C10 1.65 10 3.3 10 5 C13.3 5 16.6 5 20 5 C20 3.35 20 1.7 20 0 C26.6 0 33.2 0 40 0 C40 1.65 40 3.3 40 5 C41.65 5 43.3 5 45 5 C45 6.65 45 8.3 45 10 C48.3 10 51.6 10 55 10 C55 11.65 55 13.3 55 15 C56.65 15 58.3 15 60 15 C60 16.65 60 18.3 60 20 C61.65 20 63.3 20 65 20 C65 21.65 65 23.3 65 25 C66.65 25 68.3 25 70 25 C70 28.3 70 31.6 70 35 C68.35 35 66.7 35 65 35 C65 36.65 65 38.3 65 40 C66.65 40 68.3 40 70 40 C70 43.3 70 46.6 70 50 C68.35 50 66.7 50 65 50 C65 51.65 65 53.3 65 55 C63.35 55 61.7 55 60 55 C60 56.65 60 58.3 60 60 C58.35 60 56.7 60 55 60 C55 64.95 55 69.9 55 75 C53.35 75 51.7 75 50 75 C50 76.65 50 78.3 50 80 C48.35 80 46.7 80 45 80 C45 81.65 45 83.3 45 85 C43.35 85 41.7 85 40 85 C40 86.65 40 88.3 40 90 C36.7 90 33.4 90 30 90 C30 91.65 30 93.3 30 95 C23.4 95 16.8 95 10 95 C10 93.35 10 91.7 10 90 C6.7 90 3.4 90 0 90 C0 88.35 0 86.7 0 85 C-3.3 85 -6.6 85 -10 85 C-10 83.35 -10 81.7 -10 80 C-11.65 80 -13.3 80 -15 80 C-15 78.35 -15 76.7 -15 75 C-16.65 75 -18.3 75 -20 75 C-20 73.35 -20 71.7 -20 70 C-21.65 70 -23.3 70 -25 70 C-25 65.05 -25 60.1 -25 55 C-26.65 55 -28.3 55 -30 55 C-30 51.7 -30 48.4 -30 45 C-31.65 45 -33.3 45 -35 45 C-35 41.7 -35 38.4 -35 35 C-33.35 35 -31.7 35 -30 35 C-30 33.35 -30 31.7 -30 30 C-28.35 30 -26.7 30 -25 30 C-25 26.7 -25 23.4 -25 20 C-23.35 20 -21.7 20 -20 20 C-20 18.35 -20 16.7 -20 15 C-18.35 15 -16.7 15 -15 15 C-15 13.35 -15 11.7 -15 10 C-11.7 10 -8.4 10 -5 10 C-5 8.35 -5 6.7 -5 5 C-3.35 5 -1.7 5 0 5 C0 3.35 0 1.7 0 0 Z " fill="#3B1F1F" transform="translate(65,30)"/>
<path d="M0 0 C3.3 0 6.6 0 10 0 C10 1.65 10 3.3 10 5 C13.3 5 16.6 5 20 5 C20 3.35 20 1.7 20 0 C26.6 0 33.2 0 40 0 C40 1.65 40 3.3 40 5 C41.65 5 43.3 5 45 5 C45 6.65 45 8.3 45 10 C48.3 10 51.6 10 55 10 C55 11.65 55 13.3 55 15 C56.65 15 58.3 15 60 15 C60 16.65 60 18.3 60 20 C61.65 20 63.3 20 65 20 C65 21.65 65 23.3 65 25 C66.65 25 68.3 25 70 25 C70 28.3 70 31.6 70 35 C68.35 35 66.7 35 65 35 C65 36.65 65 38.3 65 40 C66.65 40 68.3 40 70 40 C70 43.3 70 46.6 70 50 C68.35 50 66.7 50 65 50 C65 51.65 65 53.3 65 55 C63.35 55 61.7 55 60 55 C60 56.65 60 58.3 60 60 C58.35 60 56.7 60 55 60 C55 64.95 55 69.9 55 75 C53.35 75 51.7 75 50 75 C50 76.65 50 78.3 50 80 C48.35 80 46.7 80 45 80 C45 81.65 45 83.3 45 85 C43.35 85 41.7 85 40 85 C40 86.65 40 88.3 40 90 C36.7 90 33.4 90 30 90 C30 91.65 30 93.3 30 95 C23.4 95 16.8 95 10 95 C10 93.35 10 91.7 10 90 C6.7 90 3.4 90 0 90 C0 88.35 0 86.7 0 85 C-3.3 85 -6.6 85 -10 85 C-10 83.35 -10 81.7 -10 80 C-11.65 80 -13.3 80 -15 80 C-15 78.35 -15 76.7 -15 75 C-16.65 75 -18.3 75 -20 75 C-20 73.35 -20 71.7 -20 70 C-21.65 70 -23.3 70 -25 70 C-25 65.05 -25 60.1 -25 55 C-26.65 55 -28.3 55 -30 55 C-30 51.7 -30 48.4 -30 45 C-31.65 45 -33.3 45 -35 45 C-35 41.7 -35 38.4 -35 35 C-33.35 35 -31.7 35 -30 35 C-30 33.35 -30 31.7 -30 30 C-28.35 30 -26.7 30 -25 30 C-25 26.7 -25 23.4 -25 20 C-23.35 20 -21.7 20 -20 20 C-20 18.35 -20 16.7 -20 15 C-18.35 15 -16.7 15 -15 15 C-15 13.35 -15 11.7 -15 10 C-11.7 10 -8.4 10 -5 10 C-5 8.35 -5 6.7 -5 5 C-3.35 5 -1.7 5 0 5 C0 3.35 0 1.7 0 0 Z M0 10 C0 13.3 0 16.6 0 20 C-4.95 20 -9.9 20 -15 20 C-15 23.3 -15 26.6 -15 30 C-16.65 30 -18.3 30 -20 30 C-20 31.65 -20 33.3 -20 35 C-21.65 35 -23.3 35 -25 35 C-25 38.3 -25 41.6 -25 45 C-23.35 45 -21.7 45 -20 45 C-20 48.3 -20 51.6 -20 55 C-15.05 55 -10.1 55 -5 55 C-5 53.35 -5 51.7 -5 50 C-3.35 50 -1.7 50 0 50 C0 48.35 0 46.7 0 45 C1.65 45 3.3 45 5 45 C5 43.35 5 41.7 5 40 C6.65 40 8.3 40 10 40 C10 43.3 10 46.6 10 50 C8.35 50 6.7 50 5 50 C5 51.65 5 53.3 5 55 C3.35 55 1.7 55 0 55 C0 59.95 0 64.9 0 70 C-1.65 70 -3.3 70 -5 70 C-5 66.7 -5 63.4 -5 60 C-8.3 60 -11.6 60 -15 60 C-15 63.3 -15 66.6 -15 70 C-13.35 70 -11.7 70 -10 70 C-10 71.65 -10 73.3 -10 75 C-6.7 75 -3.4 75 0 75 C0 76.65 0 78.3 0 80 C4.95 80 9.9 80 15 80 C15 81.65 15 83.3 15 85 C18.3 85 21.6 85 25 85 C25 83.35 25 81.7 25 80 C29.95 80 34.9 80 40 80 C40 78.35 40 76.7 40 75 C41.65 75 43.3 75 45 75 C45 68.4 45 61.8 45 55 C46.65 55 48.3 55 50 55 C50 53.35 50 51.7 50 50 C53.3 50 56.6 50 60 50 C60 46.7 60 43.4 60 40 C56.7 40 53.4 40 50 40 C50 36.7 50 33.4 50 30 C51.65 30 53.3 30 55 30 C55 31.65 55 33.3 55 35 C56.65 35 58.3 35 60 35 C60 31.7 60 28.4 60 25 C58.35 25 56.7 25 55 25 C55 23.35 55 21.7 55 20 C48.4 20 41.8 20 35 20 C35 16.7 35 13.4 35 10 C31.7 10 28.4 10 25 10 C25 11.65 25 13.3 25 15 C20.05 15 15.1 15 10 15 C10 13.35 10 11.7 10 10 C6.7 10 3.4 10 0 10 Z " fill="#000000" transform="translate(65,30)"/>
<path d="M0 0 C4.95 0 9.9 0 15 0 C15 1.65 15 3.3 15 5 C11.7 5 8.4 5 5 5 C5 6.65 5 8.3 5 10 C6.65 10 8.3 10 10 10 C10 11.65 10 13.3 10 15 C11.65 15 13.3 15 15 15 C15 13.35 15 11.7 15 10 C16.65 10 18.3 10 20 10 C20 14.95 20 19.9 20 25 C18.35 25 16.7 25 15 25 C15 26.65 15 28.3 15 30 C10.05 30 5.1 30 0 30 C0 31.65 0 33.3 0 35 C-3.3 35 -6.6 35 -10 35 C-10 33.35 -10 31.7 -10 30 C-14.95 30 -19.9 30 -25 30 C-25 28.35 -25 26.7 -25 25 C-28.3 25 -31.6 25 -35 25 C-35 23.35 -35 21.7 -35 20 C-36.65 20 -38.3 20 -40 20 C-40 16.7 -40 13.4 -40 10 C-36.7 10 -33.4 10 -30 10 C-30 13.3 -30 16.6 -30 20 C-28.35 20 -26.7 20 -25 20 C-25 15.05 -25 10.1 -25 5 C-23.35 5 -21.7 5 -20 5 C-20 6.65 -20 8.3 -20 10 C-18.35 10 -16.7 10 -15 10 C-15 11.65 -15 13.3 -15 15 C-13.35 15 -11.7 15 -10 15 C-10 13.35 -10 11.7 -10 10 C-8.35 10 -6.7 10 -5 10 C-5 8.35 -5 6.7 -5 5 C-3.35 5 -1.7 5 0 5 C0 3.35 0 1.7 0 0 Z " fill="#F8CA9D" transform="translate(90,80)"/>
<path d="M0 0 C3.3 0 6.6 0 10 0 C10 1.65 10 3.3 10 5 C13.3 5 16.6 5 20 5 C20 3.35 20 1.7 20 0 C26.6 0 33.2 0 40 0 C40 1.65 40 3.3 40 5 C41.65 5 43.3 5 45 5 C45 6.65 45 8.3 45 10 C43.35 10 41.7 10 40 10 C40 11.65 40 13.3 40 15 C38.35 15 36.7 15 35 15 C35 13.35 35 11.7 35 10 C31.7 10 28.4 10 25 10 C25 11.65 25 13.3 25 15 C20.05 15 15.1 15 10 15 C10 13.35 10 11.7 10 10 C6.7 10 3.4 10 0 10 C0 13.3 0 16.6 0 20 C-4.95 20 -9.9 20 -15 20 C-15 23.3 -15 26.6 -15 30 C-16.65 30 -18.3 30 -20 30 C-20 31.65 -20 33.3 -20 35 C-21.65 35 -23.3 35 -25 35 C-25 38.3 -25 41.6 -25 45 C-23.35 45 -21.7 45 -20 45 C-20 53.25 -20 61.5 -20 70 C-21.65 70 -23.3 70 -25 70 C-25 65.05 -25 60.1 -25 55 C-26.65 55 -28.3 55 -30 55 C-30 51.7 -30 48.4 -30 45 C-31.65 45 -33.3 45 -35 45 C-35 41.7 -35 38.4 -35 35 C-33.35 35 -31.7 35 -30 35 C-30 33.35 -30 31.7 -30 30 C-28.35 30 -26.7 30 -25 30 C-25 26.7 -25 23.4 -25 20 C-23.35 20 -21.7 20 -20 20 C-20 18.35 -20 16.7 -20 15 C-18.35 15 -16.7 15 -15 15 C-15 13.35 -15 11.7 -15 10 C-11.7 10 -8.4 10 -5 10 C-5 8.35 -5 6.7 -5 5 C-3.35 5 -1.7 5 0 5 C0 3.35 0 1.7 0 0 Z " fill="#000000" transform="translate(65,30)"/>
<path d="M0 0 C1.65 0 3.3 0 5 0 C5 3.3 5 6.6 5 10 C3.35 10 1.7 10 0 10 C0 11.65 0 13.3 0 15 C-1.65 15 -3.3 15 -5 15 C-5 19.95 -5 24.9 -5 30 C-6.65 30 -8.3 30 -10 30 C-10 26.7 -10 23.4 -10 20 C-13.3 20 -16.6 20 -20 20 C-20 23.3 -20 26.6 -20 30 C-18.35 30 -16.7 30 -15 30 C-15 31.65 -15 33.3 -15 35 C-11.7 35 -8.4 35 -5 35 C-5 38.3 -5 41.6 -5 45 C-8.3 45 -11.6 45 -15 45 C-15 43.35 -15 41.7 -15 40 C-16.65 40 -18.3 40 -20 40 C-20 38.35 -20 36.7 -20 35 C-21.65 35 -23.3 35 -25 35 C-25 28.4 -25 21.8 -25 15 C-20.05 15 -15.1 15 -10 15 C-10 13.35 -10 11.7 -10 10 C-8.35 10 -6.7 10 -5 10 C-5 8.35 -5 6.7 -5 5 C-3.35 5 -1.7 5 0 5 C0 3.35 0 1.7 0 0 Z " fill="#000000" transform="translate(70,70)"/>
<path d="M0 0 C1.65 0 3.3 0 5 0 C5 1.65 5 3.3 5 5 C6.65 5 8.3 5 10 5 C10 6.65 10 8.3 10 10 C11.65 10 13.3 10 15 10 C15 11.65 15 13.3 15 15 C13.35 15 11.7 15 10 15 C10 16.65 10 18.3 10 20 C6.7 20 3.4 20 0 20 C0 18.35 0 16.7 0 15 C-3.3 15 -6.6 15 -10 15 C-10 11.7 -10 8.4 -10 5 C-6.7 5 -3.4 5 0 5 C0 3.35 0 1.7 0 0 Z " fill="#80483E" transform="translate(65,45)"/>
<path d="M0 0 C4.95 0 9.9 0 15 0 C15 3.3 15 6.6 15 10 C10.05 10 5.1 10 0 10 C0 13.3 0 16.6 0 20 C-1.65 20 -3.3 20 -5 20 C-5 15.05 -5 10.1 -5 5 C-3.35 5 -1.7 5 0 5 C0 3.35 0 1.7 0 0 Z " fill="#000000" transform="translate(50,40)"/>
<path d="M0 0 C3.3 0 6.6 0 10 0 C10 3.3 10 6.6 10 10 C11.65 10 13.3 10 15 10 C15 11.65 15 13.3 15 15 C11.7 15 8.4 15 5 15 C5 13.35 5 11.7 5 10 C3.35 10 1.7 10 0 10 C0 6.7 0 3.4 0 0 Z " fill="#F8CA9D" transform="translate(50,90)"/>
<path d="M0 0 C1.65 0 3.3 0 5 0 C5 1.65 5 3.3 5 5 C8.3 5 11.6 5 15 5 C15 6.65 15 8.3 15 10 C13.35 10 11.7 10 10 10 C10 11.65 10 13.3 10 15 C8.35 15 6.7 15 5 15 C5 13.35 5 11.7 5 10 C3.35 10 1.7 10 0 10 C0 6.7 0 3.4 0 0 Z " fill="#3C1F20" transform="translate(70,80)"/>
<path d="M0 0 C4.95 0 9.9 0 15 0 C15 1.65 15 3.3 15 5 C11.7 5 8.4 5 5 5 C5 6.65 5 8.3 5 10 C1.7 10 -1.6 10 -5 10 C-5 8.35 -5 6.7 -5 5 C-3.35 5 -1.7 5 0 5 C0 3.35 0 1.7 0 0 Z " fill="#E07D6E" transform="translate(90,80)"/>
<path d="M0 0 C6.6 0 13.2 0 20 0 C20 1.65 20 3.3 20 5 C13.4 5 6.8 5 0 5 C0 3.35 0 1.7 0 0 Z " fill="#1C1C1C" transform="translate(75,120)"/>
<path d="M0 0 C4.95 0 9.9 0 15 0 C15 1.65 15 3.3 15 5 C13.35 5 11.7 5 10 5 C10 6.65 10 8.3 10 10 C8.35 10 6.7 10 5 10 C5 8.35 5 6.7 5 5 C3.35 5 1.7 5 0 5 C0 3.35 0 1.7 0 0 Z " fill="#3C1F20" transform="translate(95,85)"/>
<path d="M0 0 C3.3 0 6.6 0 10 0 C10 1.65 10 3.3 10 5 C8.35 5 6.7 5 5 5 C5 6.65 5 8.3 5 10 C1.7 10 -1.6 10 -5 10 C-5 8.35 -5 6.7 -5 5 C-3.35 5 -1.7 5 0 5 C0 3.35 0 1.7 0 0 Z " fill="#80483E" transform="translate(90,40)"/>
<path d="M0 0 C6.6 0 13.2 0 20 0 C20 1.65 20 3.3 20 5 C13.4 5 6.8 5 0 5 C0 3.35 0 1.7 0 0 Z " fill="#1C1C1C" transform="translate(85,30)"/>
<path d="M0 0 C3.3 0 6.6 0 10 0 C10 1.65 10 3.3 10 5 C8.35 5 6.7 5 5 5 C5 6.65 5 8.3 5 10 C3.35 10 1.7 10 0 10 C0 6.7 0 3.4 0 0 Z " fill="#1C1C1C" transform="translate(105,105)"/>
<path d="M0 0 C1.65 0 3.3 0 5 0 C5 4.95 5 9.9 5 15 C3.35 15 1.7 15 0 15 C0 10.05 0 5.1 0 0 Z " fill="#1C1C1C" transform="translate(115,90)"/>
<path d="M0 0 C1.65 0 3.3 0 5 0 C5 4.95 5 9.9 5 15 C3.35 15 1.7 15 0 15 C0 10.05 0 5.1 0 0 Z " fill="#1C1C1C" transform="translate(40,85)"/>
<path d="M0 0 C4.95 0 9.9 0 15 0 C15 1.65 15 3.3 15 5 C10.05 5 5.1 5 0 5 C0 3.35 0 1.7 0 0 Z " fill="#000000" transform="translate(75,80)"/>
<path d="M0 0 C3.3 0 6.6 0 10 0 C10 1.65 10 3.3 10 5 C8.35 5 6.7 5 5 5 C5 6.65 5 8.3 5 10 C3.35 10 1.7 10 0 10 C0 6.7 0 3.4 0 0 Z " fill="#80483E" transform="translate(80,65)"/>
<path d="M0 0 C1.65 0 3.3 0 5 0 C5 3.3 5 6.6 5 10 C1.7 10 -1.6 10 -5 10 C-5 8.35 -5 6.7 -5 5 C-3.35 5 -1.7 5 0 5 C0 3.35 0 1.7 0 0 Z " fill="#80483E" transform="translate(55,65)"/>
<path d="M0 0 C1.65 0 3.3 0 5 0 C5 1.65 5 3.3 5 5 C6.65 5 8.3 5 10 5 C10 6.65 10 8.3 10 10 C6.7 10 3.4 10 0 10 C0 6.7 0 3.4 0 0 Z " fill="#000000" transform="translate(115,60)"/>
<path d="M0 0 C3.3 0 6.6 0 10 0 C10 1.65 10 3.3 10 5 C6.7 5 3.4 5 0 5 C0 3.35 0 1.7 0 0 Z " fill="#1C1C1C" transform="translate(95,115)"/>
<path d="M0 0 C3.3 0 6.6 0 10 0 C10 1.65 10 3.3 10 5 C6.7 5 3.4 5 0 5 C0 3.35 0 1.7 0 0 Z " fill="#1C1C1C" transform="translate(65,115)"/>
<path d="M0 0 C3.3 0 6.6 0 10 0 C10 1.65 10 3.3 10 5 C6.7 5 3.4 5 0 5 C0 3.35 0 1.7 0 0 Z " fill="#1C1C1C" transform="translate(55,110)"/>
<path d="M0 0 C3.3 0 6.6 0 10 0 C10 1.65 10 3.3 10 5 C6.7 5 3.4 5 0 5 C0 3.35 0 1.7 0 0 Z " fill="#DE7E6E" transform="translate(65,105)"/>
<path d="M0 0 C3.3 0 6.6 0 10 0 C10 1.65 10 3.3 10 5 C6.7 5 3.4 5 0 5 C0 3.35 0 1.7 0 0 Z " fill="#000000" transform="translate(85,100)"/>
<path d="M0 0 C3.3 0 6.6 0 10 0 C10 1.65 10 3.3 10 5 C6.7 5 3.4 5 0 5 C0 3.35 0 1.7 0 0 Z " fill="#000000" transform="translate(95,75)"/>
<path d="M0 0 C1.65 0 3.3 0 5 0 C5 3.3 5 6.6 5 10 C3.35 10 1.7 10 0 10 C0 6.7 0 3.4 0 0 Z " fill="#000000" transform="translate(40,75)"/>
<path d="M0 0 C1.65 0 3.3 0 5 0 C5 3.3 5 6.6 5 10 C3.35 10 1.7 10 0 10 C0 6.7 0 3.4 0 0 Z " fill="#1C1C1C" transform="translate(35,75)"/>
<path d="M0 0 C1.65 0 3.3 0 5 0 C5 3.3 5 6.6 5 10 C3.35 10 1.7 10 0 10 C0 6.7 0 3.4 0 0 Z " fill="#1C1C1C" transform="translate(130,70)"/>
<path d="M0 0 C1.65 0 3.3 0 5 0 C5 3.3 5 6.6 5 10 C3.35 10 1.7 10 0 10 C0 6.7 0 3.4 0 0 Z " fill="#1C1C1C" transform="translate(30,65)"/>
<path d="M0 0 C1.65 0 3.3 0 5 0 C5 3.3 5 6.6 5 10 C3.35 10 1.7 10 0 10 C0 6.7 0 3.4 0 0 Z " fill="#1C1C1C" transform="translate(130,55)"/>
<path d="M0 0 C3.3 0 6.6 0 10 0 C10 1.65 10 3.3 10 5 C6.7 5 3.4 5 0 5 C0 3.35 0 1.7 0 0 Z " fill="#80483E" transform="translate(105,50)"/>
<path d="M0 0 C1.65 0 3.3 0 5 0 C5 3.3 5 6.6 5 10 C3.35 10 1.7 10 0 10 C0 6.7 0 3.4 0 0 Z " fill="#000000" transform="translate(45,50)"/>
<path d="M0 0 C1.65 0 3.3 0 5 0 C5 3.3 5 6.6 5 10 C3.35 10 1.7 10 0 10 C0 6.7 0 3.4 0 0 Z " fill="#1C1C1C" transform="translate(40,50)"/>
<path d="M0 0 C3.3 0 6.6 0 10 0 C10 1.65 10 3.3 10 5 C6.7 5 3.4 5 0 5 C0 3.35 0 1.7 0 0 Z " fill="#1C1C1C" transform="translate(110,40)"/>
<path d="M0 0 C3.3 0 6.6 0 10 0 C10 1.65 10 3.3 10 5 C6.7 5 3.4 5 0 5 C0 3.35 0 1.7 0 0 Z " fill="#000000" transform="translate(75,40)"/>
<path d="M0 0 C3.3 0 6.6 0 10 0 C10 1.65 10 3.3 10 5 C6.7 5 3.4 5 0 5 C0 3.35 0 1.7 0 0 Z " fill="#1C1C1C" transform="translate(50,40)"/>
<path d="M0 0 C3.3 0 6.6 0 10 0 C10 1.65 10 3.3 10 5 C6.7 5 3.4 5 0 5 C0 3.35 0 1.7 0 0 Z " fill="#1C1C1C" transform="translate(75,35)"/>
<path d="M0 0 C3.3 0 6.6 0 10 0 C10 1.65 10 3.3 10 5 C6.7 5 3.4 5 0 5 C0 3.35 0 1.7 0 0 Z " fill="#1C1C1C" transform="translate(65,30)"/>
<path d="M0 0 C1.65 0 3.3 0 5 0 C5 1.65 5 3.3 5 5 C3.35 5 1.7 5 0 5 C0 3.35 0 1.7 0 0 Z " fill="#1C1C1C" transform="translate(105,110)"/>
<path d="M0 0 C1.65 0 3.3 0 5 0 C5 1.65 5 3.3 5 5 C3.35 5 1.7 5 0 5 C0 3.35 0 1.7 0 0 Z " fill="#DE7E6E" transform="translate(80,110)"/>
<path d="M0 0 C1.65 0 3.3 0 5 0 C5 1.65 5 3.3 5 5 C3.35 5 1.7 5 0 5 C0 3.35 0 1.7 0 0 Z " fill="#000000" transform="translate(105,105)"/>
<path d="M0 0 C1.65 0 3.3 0 5 0 C5 1.65 5 3.3 5 5 C3.35 5 1.7 5 0 5 C0 3.35 0 1.7 0 0 Z " fill="#1C1C1C" transform="translate(50,105)"/>
<path d="M0 0 C1.65 0 3.3 0 5 0 C5 1.65 5 3.3 5 5 C3.35 5 1.7 5 0 5 C0 3.35 0 1.7 0 0 Z " fill="#DE7E6E" transform="translate(60,100)"/>
<path d="M0 0 C1.65 0 3.3 0 5 0 C5 1.65 5 3.3 5 5 C3.35 5 1.7 5 0 5 C0 3.35 0 1.7 0 0 Z " fill="#F8CA9D" transform="translate(55,100)"/>
<path d="M0 0 C1.65 0 3.3 0 5 0 C5 1.65 5 3.3 5 5 C3.35 5 1.7 5 0 5 C0 3.35 0 1.7 0 0 Z " fill="#1C1C1C" transform="translate(45,100)"/>
<path d="M0 0 C1.65 0 3.3 0 5 0 C5 1.65 5 3.3 5 5 C3.35 5 1.7 5 0 5 C0 3.35 0 1.7 0 0 Z " fill="#DE7E6E" transform="translate(55,95)"/>
<path d="M0 0 C1.65 0 3.3 0 5 0 C5 1.65 5 3.3 5 5 C3.35 5 1.7 5 0 5 C0 3.35 0 1.7 0 0 Z " fill="#D3D7EE" transform="translate(105,90)"/>
<path d="M0 0 C1.65 0 3.3 0 5 0 C5 1.65 5 3.3 5 5 C3.35 5 1.7 5 0 5 C0 3.35 0 1.7 0 0 Z " fill="#3A395A" transform="translate(100,90)"/>
<path d="M0 0 C1.65 0 3.3 0 5 0 C5 1.65 5 3.3 5 5 C3.35 5 1.7 5 0 5 C0 3.35 0 1.7 0 0 Z " fill="#D3D7EE" transform="translate(95,90)"/>
<path d="M0 0 C1.65 0 3.3 0 5 0 C5 1.65 5 3.3 5 5 C3.35 5 1.7 5 0 5 C0 3.35 0 1.7 0 0 Z " fill="#D3D7EE" transform="translate(80,90)"/>
<path d="M0 0 C1.65 0 3.3 0 5 0 C5 1.65 5 3.3 5 5 C3.35 5 1.7 5 0 5 C0 3.35 0 1.7 0 0 Z " fill="#3A395A" transform="translate(75,90)"/>
<path d="M0 0 C1.65 0 3.3 0 5 0 C5 1.65 5 3.3 5 5 C3.35 5 1.7 5 0 5 C0 3.35 0 1.7 0 0 Z " fill="#D3D7EE" transform="translate(70,90)"/>
<path d="M0 0 C1.65 0 3.3 0 5 0 C5 1.65 5 3.3 5 5 C3.35 5 1.7 5 0 5 C0 3.35 0 1.7 0 0 Z " fill="#1C1C1C" transform="translate(120,85)"/>
<path d="M0 0 C1.65 0 3.3 0 5 0 C5 1.65 5 3.3 5 5 C3.35 5 1.7 5 0 5 C0 3.35 0 1.7 0 0 Z " fill="#E07D6E" transform="translate(65,85)"/>
<path d="M0 0 C1.65 0 3.3 0 5 0 C5 1.65 5 3.3 5 5 C3.35 5 1.7 5 0 5 C0 3.35 0 1.7 0 0 Z " fill="#1C1C1C" transform="translate(125,80)"/>
<path d="M0 0 C1.65 0 3.3 0 5 0 C5 1.65 5 3.3 5 5 C3.35 5 1.7 5 0 5 C0 3.35 0 1.7 0 0 Z " fill="#000000" transform="translate(105,80)"/>
<path d="M0 0 C1.65 0 3.3 0 5 0 C5 1.65 5 3.3 5 5 C3.35 5 1.7 5 0 5 C0 3.35 0 1.7 0 0 Z " fill="#E07D6E" transform="translate(70,80)"/>
<path d="M0 0 C1.65 0 3.3 0 5 0 C5 1.65 5 3.3 5 5 C3.35 5 1.7 5 0 5 C0 3.35 0 1.7 0 0 Z " fill="#000000" transform="translate(90,70)"/>
<path d="M0 0 C1.65 0 3.3 0 5 0 C5 1.65 5 3.3 5 5 C3.35 5 1.7 5 0 5 C0 3.35 0 1.7 0 0 Z " fill="#1C1C1C" transform="translate(125,65)"/>
<path d="M0 0 C1.65 0 3.3 0 5 0 C5 1.65 5 3.3 5 5 C3.35 5 1.7 5 0 5 C0 3.35 0 1.7 0 0 Z " fill="#80483E" transform="translate(100,60)"/>
<path d="M0 0 C1.65 0 3.3 0 5 0 C5 1.65 5 3.3 5 5 C3.35 5 1.7 5 0 5 C0 3.35 0 1.7 0 0 Z " fill="#1C1C1C" transform="translate(35,60)"/>
<path d="M0 0 C1.65 0 3.3 0 5 0 C5 1.65 5 3.3 5 5 C3.35 5 1.7 5 0 5 C0 3.35 0 1.7 0 0 Z " fill="#1C1C1C" transform="translate(125,50)"/>
<path d="M0 0 C1.65 0 3.3 0 5 0 C5 1.65 5 3.3 5 5 C3.35 5 1.7 5 0 5 C0 3.35 0 1.7 0 0 Z " fill="#1C1C1C" transform="translate(120,45)"/>
<path d="M0 0 C1.65 0 3.3 0 5 0 C5 1.65 5 3.3 5 5 C3.35 5 1.7 5 0 5 C0 3.35 0 1.7 0 0 Z " fill="#1C1C1C" transform="translate(45,45)"/>
<path d="M0 0 C1.65 0 3.3 0 5 0 C5 1.65 5 3.3 5 5 C3.35 5 1.7 5 0 5 C0 3.35 0 1.7 0 0 Z " fill="#3C1F1F" transform="translate(100,40)"/>
<path d="M0 0 C1.65 0 3.3 0 5 0 C5 1.65 5 3.3 5 5 C3.35 5 1.7 5 0 5 C0 3.35 0 1.7 0 0 Z " fill="#3C1F1F" transform="translate(85,40)"/>
<path d="M0 0 C1.65 0 3.3 0 5 0 C5 1.65 5 3.3 5 5 C3.35 5 1.7 5 0 5 C0 3.35 0 1.7 0 0 Z " fill="#1C1C1C" transform="translate(105,35)"/>
<path d="M0 0 C1.65 0 3.3 0 5 0 C5 1.65 5 3.3 5 5 C3.35 5 1.7 5 0 5 C0 3.35 0 1.7 0 0 Z " fill="#1C1C1C" transform="translate(60,35)"/>
</svg>
